<?xml version="1.0" encoding="UTF-8" standalone="no" ?>
<!DOCTYPE svg PUBLIC "-//W3C//DTD SVG 1.1//EN" "http://www.w3.org/Graphics/SVG/1.1/DTD/svg11.dtd">
<svg xmlns="http://www.w3.org/2000/svg" xmlns:xlink="http://www.w3.org/1999/xlink" version="1.1" width="500" height="500" viewBox="0 0 500 500" xml:space="preserve">
<!-- Created with SVG Stack Editor - https://svgstack.com -->
<defs>
</defs>
<rect x="0" y="0" width="100%" height="100%" fill="transparent"></rect>
<g transform="matrix(1.25 0 0 1.25 250 250)"  >
<g style=""   >
		<g transform="matrix(1 0 0 1 0 0)" id="path_0" clip-path="url(#CLIPPATH_1)"  >
<clipPath id="CLIPPATH_1" >
	<rect transform="matrix(1 0 0 1 0.25 0)" id="clip0_104_647" x="-200" y="-114.2855" rx="0" ry="0" width="400" height="228.571" />
</clipPath>
<path style="stroke: none; stroke-width: 1; stroke-dasharray: none; stroke-linecap: butt; stroke-dashoffset: 0; stroke-linejoin: miter; stroke-miterlimit: 4; fill: rgb(58,119,255); fill-rule: evenodd; opacity: 1;"  transform=" translate(-200.67, -114.56)" d="M 262.822 228.847 L 208.679 228.847 L 208.679 0.275146 L 262.822 0.275146 L 262.822 228.847 Z M 189.344 114.838 C 189.344 166.867 147.156 208.969 95.1808 208.969 C 43.2012 208.969 0.944092 166.798 0.944092 114.838 C 0.944092 62.8792 43.1318 20.7037 95.1074 20.7037 C 147.087 20.7037 189.344 62.8058 189.344 114.838 L 189.344 114.838 Z M 123.597 114.838 C 123.6 111.102 122.866 107.401 121.438 103.949 C 120.009 100.496 117.913 97.3591 115.27 94.7176 C 112.627 92.0762 109.489 89.982 106.035 88.555 C 102.582 87.1281 98.8807 86.3963 95.1441 86.4017 C 91.4074 86.3963 87.7064 87.1281 84.253 88.555 C 80.7996 89.982 77.6615 92.0762 75.0185 94.7176 C 72.3756 97.3591 70.2796 100.496 68.8506 103.949 C 67.4217 107.401 66.6878 111.102 66.691 114.838 C 66.6883 118.574 67.4225 122.274 68.8514 125.726 C 70.2804 129.178 72.3761 132.314 75.0185 134.955 C 77.661 137.596 80.7984 139.69 84.2511 141.117 C 87.7038 142.544 91.404 143.276 95.14 143.271 C 98.8766 143.277 102.578 142.546 106.031 141.119 C 109.485 139.693 112.623 137.599 115.267 134.958 C 117.91 132.317 120.007 129.18 121.436 125.728 C 122.865 122.276 123.6 118.575 123.597 114.838 L 123.597 114.838 Z M 400.25 57.6956 L 364.267 57.6956 L 343.14 78.7935 L 322.013 57.6915 L 286.022 57.6915 L 286.022 94.2629 L 306.867 115.079 L 286.022 135.9 L 286.022 171.981 L 322.573 171.981 L 343.205 151.373 L 363.838 171.981 L 400.389 171.981 L 400.389 135.9 L 379.544 115.083 L 400.389 94.267 L 400.389 57.6956 L 400.246 57.6956 L 400.25 57.6956 Z" stroke-linecap="round" />
</g>
</g>
</g>
<g transform="matrix(1.25 0 0 1.25 250 250)"  >
<g style=""   >
		<g transform="matrix(1 0 0 1 0 0)" id="path_0" clip-path="url(#CLIPPATH_2)"  >
<clipPath id="CLIPPATH_2" >
	<rect transform="matrix(1 0 0 1 0.25 0)" id="clip0_104_647" x="-200" y="-114.2855" rx="0" ry="0" width="400" height="228.571" />
</clipPath>
<path style="stroke: none; stroke-width: 1; stroke-dasharray: none; stroke-linecap: butt; stroke-dashoffset: 0; stroke-linejoin: miter; stroke-miterlimit: 4; fill: rgb(58,119,255); fill-rule: evenodd; opacity: 1;"  transform=" translate(-200.67, -114.56)" d="M 262.822 228.847 L 208.679 228.847 L 208.679 0.275146 L 262.822 0.275146 L 262.822 228.847 Z M 189.344 114.838 C 189.344 166.867 147.156 208.969 95.1808 208.969 C 43.2012 208.969 0.944092 166.798 0.944092 114.838 C 0.944092 62.8792 43.1318 20.7037 95.1074 20.7037 C 147.087 20.7037 189.344 62.8058 189.344 114.838 L 189.344 114.838 Z M 123.597 114.838 C 123.6 111.102 122.866 107.401 121.438 103.949 C 120.009 100.496 117.913 97.3591 115.27 94.7176 C 112.627 92.0762 109.489 89.982 106.035 88.555 C 102.582 87.1281 98.8807 86.3963 95.1441 86.4017 C 91.4074 86.3963 87.7064 87.1281 84.253 88.555 C 80.7996 89.982 77.6615 92.0762 75.0185 94.7176 C 72.3756 97.3591 70.2796 100.496 68.8506 103.949 C 67.4217 107.401 66.6878 111.102 66.691 114.838 C 66.6883 118.574 67.4225 122.274 68.8514 125.726 C 70.2804 129.178 72.3761 132.314 75.0185 134.955 C 77.661 137.596 80.7984 139.69 84.2511 141.117 C 87.7038 142.544 91.404 143.276 95.14 143.271 C 98.8766 143.277 102.578 142.546 106.031 141.119 C 109.485 139.693 112.623 137.599 115.267 134.958 C 117.91 132.317 120.007 129.18 121.436 125.728 C 122.865 122.276 123.6 118.575 123.597 114.838 L 123.597 114.838 Z M 400.25 57.6956 L 364.267 57.6956 L 343.14 78.7935 L 322.013 57.6915 L 286.022 57.6915 L 286.022 94.2629 L 306.867 115.079 L 286.022 135.9 L 286.022 171.981 L 322.573 171.981 L 343.205 151.373 L 363.838 171.981 L 400.389 171.981 L 400.389 135.9 L 379.544 115.083 L 400.389 94.267 L 400.389 57.6956 L 400.246 57.6956 L 400.25 57.6956 Z" stroke-linecap="round" />
</g>
</g>
</g>
</svg>